<svg width="2214" height="539" viewBox="0 0 2214 539" fill="none" xmlns="http://www.w3.org/2000/svg">
<path d="M635.365 175.427V167.327H620.08V175.058C596.968 177.359 588.589 191.534 588.589 204.787C588.589 226.785 608.11 232.215 620.08 233.412V241.787H635.365V233.412C651.939 232.583 666.855 223.011 666.855 204.971C666.855 187.208 652.215 177.728 635.365 175.427ZM605.347 204.971C605.347 193.374 611.977 190.245 620.08 189.417V220.434C611.977 219.606 605.347 216.476 605.347 204.971ZM635.365 220.25V189.693C643.467 190.705 650.005 194.203 650.005 204.787C650.005 215.924 642.639 219.238 635.365 220.25ZM722.215 241.787H737.868L712.178 167.327H694.868L667.521 241.787H683.174L688.975 226.417H716.414L722.215 241.787ZM694.131 212.703L702.694 190.061L711.258 212.703H694.131ZM793.295 241.787H811.711L780.404 197.7L808.396 167.327H790.164L761.804 198.253V167.327H746.151V241.787H761.804V218.041L769.907 209.205L793.295 241.787ZM862.453 167.419L847.168 199.909L833.633 167.419H814.388L837.776 217.949L827.003 241.787H845.603L881.789 167.419H862.453ZM886.625 167.327V195.491C886.625 202.67 886.533 222.459 880.64 225.68C878.523 226.877 875.392 227.153 871.156 226.785V241.511C876.957 241.879 881.469 242.248 884.876 241.051C900.437 235.621 900.437 211.322 900.437 198.989V182.145H918.668V241.695H934.874V167.327H886.625ZM979.102 197.332H964.738V167.327H948.256V241.787H975.419C991.072 241.787 1008.75 239.302 1008.75 219.974C1008.75 207.456 1001.38 197.332 979.102 197.332ZM993.19 219.698C993.19 224.576 988.402 228.534 981.036 228.534H965.014V208.837H981.036C988.402 208.837 993.19 212.795 993.19 217.673V219.698ZM1006.56 167.327V182.238H1032.53V241.787H1049.01V182.238H1074.98V167.327H1006.56ZM1085.51 167.327V241.787H1138.73V226.969H1101.62V210.402L1132.56 210.494V195.675L1101.62 195.491V182.238H1138.73V167.327H1085.51ZM1146.16 167.327V182.238H1172.12V241.787H1188.6V182.238H1214.57V167.327H1146.16ZM1308.5 241.787H1326.91L1295.61 197.7L1323.6 167.327H1305.37L1277.01 198.253V167.327H1261.35V241.787H1277.01V218.041L1285.11 209.205L1308.5 241.787ZM1361.96 165.762C1342.53 165.762 1326.51 179.66 1326.51 204.511C1326.51 229.914 1342.53 243.168 1361.96 243.168C1381.38 243.168 1397.5 230.006 1397.5 204.511C1397.5 180.121 1382.3 165.762 1361.96 165.762ZM1361.96 227.797C1350.91 227.797 1342.53 220.526 1342.53 204.511C1342.53 188.588 1351 181.225 1361.96 181.225C1373 181.225 1381.38 188.588 1381.38 204.511C1381.38 220.526 1373.1 227.797 1361.96 227.797ZM1467.72 167.327L1446.54 225.957L1425.27 167.327H1408.05V241.787H1423.7V199.081L1440.37 241.787H1452.71L1469.37 199.173V241.787H1485.03V167.327H1467.72ZM1498.17 167.327V241.787H1514.65V182.238H1544.48V241.787H1561.06V167.327H1498.17ZM1605.1 197.332H1590.74V167.327H1574.26V241.787H1601.42C1617.07 241.787 1634.75 239.302 1634.75 219.974C1634.75 207.456 1627.39 197.332 1605.1 197.332ZM1619.19 219.698C1619.19 224.576 1614.4 228.534 1607.04 228.534H1591.02V208.837H1607.04C1614.4 208.837 1619.19 212.795 1619.19 217.673V219.698ZM1705.74 165.762C1688.34 165.762 1673.61 176.899 1670.75 197.056H1660.71V167.235H1644.23V241.695H1660.71V209.573H1670.47C1672.5 231.663 1687.6 243.168 1705.74 243.168C1725.17 243.168 1741.28 230.006 1741.28 204.511C1741.28 180.121 1726.09 165.762 1705.74 165.762ZM1705.74 227.797C1694.88 227.797 1686.31 220.526 1686.31 204.511C1686.31 187.76 1694.69 181.225 1705.74 181.225C1716.79 181.225 1725.17 188.588 1725.17 204.511C1725.17 220.526 1716.42 227.797 1705.74 227.797ZM1748.4 167.327V182.238H1774.37V241.787H1790.85V182.238H1816.81V167.327H1748.4ZM1827.34 167.327V241.787H1880.57V226.969H1843.45V210.402L1874.4 210.494V195.675L1843.45 195.491V182.238H1880.57V167.327H1827.34ZM1925.29 167.327H1901.81H1890.86V241.787H1907.33V215.096H1925.92C1938.18 215.096 1949.78 206.72 1949.78 191.349C1949.78 179.66 1941.4 167.327 1925.29 167.327ZM1924.92 200.646H1907.33V181.777H1924.92C1930.62 181.777 1935.32 185.643 1935.32 191.349C1935.32 197.056 1930.91 200.646 1924.92 200.646ZM1975.87 167.327H1959.38V241.787H1975.87V210.402H2007.26V241.787H2023.83V167.327H2007.26V195.491H1975.87V167.327ZM2105.22 167.327V241.787H2121.72V167.327H2105.22ZM2067.93 197.332H2053.58V167.327H2037.09V241.787H2064.25C2079.9 241.787 2097.59 239.302 2097.59 219.974C2097.59 207.456 2090.22 197.332 2067.93 197.332ZM2082.03 219.698C2082.03 224.576 2077.24 228.534 2069.87 228.534H2053.85V208.837H2069.87C2077.24 208.837 2082.03 212.795 2082.03 217.673V219.698ZM2205.57 167.327H2184.95L2169.39 189.785L2153.74 167.327H2133.19L2159.07 204.603L2133.19 241.787H2153.74L2169.39 219.422L2184.95 241.787H2205.57L2179.69 204.603L2205.57 167.327ZM643.007 349.842C641.81 360.703 634.075 365.857 624.776 365.857C613.726 365.857 605.347 358.586 605.347 342.571C605.347 326.648 613.818 319.285 624.776 319.285C633.339 319.285 640.337 323.795 642.27 333.091H659.489C655.99 314.591 642.362 303.822 624.776 303.822C605.347 303.822 589.326 317.72 589.326 342.571C589.326 367.974 605.347 381.228 624.776 381.228C642.27 381.228 657.003 370.643 659.857 349.842H643.007ZM669.882 305.387V379.847H685.535L721.63 330.79V379.847H737.283V305.387H721.63L685.535 354.076V305.387H669.882ZM801.57 349.842C800.373 360.703 792.639 365.857 783.339 365.857C772.29 365.857 763.911 358.586 763.911 342.571C763.911 326.648 772.382 319.285 783.339 319.285C791.902 319.285 798.9 323.795 800.834 333.091H818.052C814.553 314.591 800.926 303.822 783.339 303.822C763.911 303.822 747.889 317.72 747.889 342.571C747.889 367.974 763.911 381.228 783.339 381.228C800.834 381.228 815.566 370.643 818.421 349.842H801.57ZM825.591 305.387V320.298H851.557V379.847H868.039V320.298H894.005V305.387H825.591ZM904.536 305.387V379.847H957.757V365.029H920.65V348.462L951.588 348.554V333.735L920.65 333.551V320.298H957.757V305.387H904.536ZM1027.7 305.387L1006.53 364.017L985.256 305.387H968.037V379.847H983.69V337.141L1000.36 379.847H1012.69L1029.36 337.233V379.847H1045.01V305.387H1027.7ZM1094.41 305.387V379.847H1110.06L1146.16 330.79V379.847H1161.81V305.387H1146.16L1110.06 354.076V305.387H1094.41ZM1262.36 349.842C1261.16 360.703 1253.42 365.857 1244.12 365.857C1233.08 365.857 1224.7 358.586 1224.7 342.571C1224.7 326.648 1233.17 319.285 1244.12 319.285C1252.69 319.285 1259.69 323.795 1261.62 333.091H1278.84C1275.34 314.591 1261.71 303.822 1244.12 303.822C1224.7 303.822 1208.67 317.72 1208.67 342.571C1208.67 367.974 1224.7 381.228 1244.12 381.228C1261.62 381.228 1276.35 370.643 1279.21 349.842H1262.36ZM1289.23 305.387V379.847H1342.45V365.029H1305.34V348.462L1336.28 348.554V333.735L1305.34 333.551V320.298H1342.45V305.387H1289.23ZM1349.88 305.387V320.298H1375.84V379.847H1392.33V320.298H1418.29V305.387H1349.88ZM1428.82 305.387V379.847H1482.04V365.029H1444.93V348.462L1475.87 348.554V333.735L1444.93 333.551V320.298H1482.04V305.387H1428.82ZM1544.07 305.387L1507.98 354.076V305.387H1492.32V379.847H1507.98L1544.07 330.79V379.847H1559.72V305.387H1544.07ZM1526.02 303.914C1534.86 303.914 1542.6 297.564 1542.6 287.623V287.255H1533.3V287.623C1533.3 292.317 1529.62 294.802 1526.02 294.802C1522.43 294.802 1518.75 292.317 1518.75 287.623V287.255H1509.36L1509.45 287.623C1509.45 297.564 1517.18 303.914 1526.02 303.914Z" fill="black"/>
<path fill-rule="evenodd" clip-rule="evenodd" d="M376.718 274.791H344.083C342.299 278.479 338.52 281.023 334.146 281.023C328.055 281.023 323.116 276.086 323.116 269.998C323.116 263.908 328.055 258.972 334.146 258.972C338.52 258.972 342.299 261.515 344.083 265.204H383.664C389.646 265.204 392.642 272.433 388.412 276.661L375.502 289.564V374.965H365.911V288.373C365.911 286.594 366.619 284.887 367.877 283.627L376.718 274.791ZM335.585 329.467V405.661H345.176V322.522C345.176 316.543 337.944 313.55 333.714 317.776L324.746 326.742L278.046 280.061L312.64 245.481C316.87 241.252 313.873 234.023 307.892 234.023H280.672C278.892 234.023 277.184 234.731 275.924 235.989L248.26 263.641V193.767C248.26 191.988 247.555 190.28 246.294 189.022L225.31 168.046L248.138 145.226C249.195 145.562 250.321 145.744 251.489 145.744C257.581 145.744 262.519 140.808 262.519 134.718C262.519 128.628 257.581 123.692 251.489 123.692C245.396 123.692 240.459 128.628 240.459 134.718C240.459 136.095 240.712 137.414 241.172 138.63L169.244 210.528V134.335H159.653V217.472C159.653 223.452 166.885 226.446 171.115 222.217L218.527 174.824L238.669 194.958V330.236L223.323 314.896V217.036C227.013 215.253 229.557 211.476 229.557 207.104C229.557 201.014 224.619 196.078 218.527 196.078C212.436 196.078 207.497 201.014 207.497 207.104C207.497 211.476 210.042 215.253 213.731 217.036V316.087C213.731 317.866 214.439 319.573 215.698 320.833L236.799 341.925C241.028 346.153 248.26 343.158 248.26 337.179V277.2L281.865 243.611H300.946L269.229 275.315C266.607 277.936 266.607 282.185 269.229 284.807L311.497 327.057H288.613L272.674 311.124C273.238 309.801 273.549 308.344 273.549 306.814C273.549 300.724 268.611 295.788 262.519 295.788C256.427 295.788 251.489 300.724 251.489 306.814C251.489 312.904 256.427 317.839 262.519 317.839C263.53 317.839 264.508 317.703 265.437 317.45L282.674 334.679C283.933 335.937 285.64 336.644 287.422 336.644H314.84L255.456 396.004C254.224 395.529 252.887 395.27 251.489 395.27C245.396 395.27 240.459 400.206 240.459 406.296C240.459 412.384 245.396 417.321 251.489 417.321C257.581 417.321 262.519 412.384 262.519 406.296C262.519 405.149 262.344 404.042 262.018 403.003L335.585 329.467ZM170.683 258.972C176.776 258.972 181.713 263.908 181.713 269.998C181.713 276.086 176.776 281.023 170.683 281.023C166.311 281.023 162.532 278.479 160.748 274.791H121.166C115.183 274.791 112.189 267.562 116.419 263.334L129.327 250.43V165.028H138.918V251.622C138.918 253.402 138.212 255.108 136.952 256.366L128.112 265.204H160.748C162.532 261.515 166.311 258.972 170.683 258.972Z" fill="black"/>
<path fill-rule="evenodd" clip-rule="evenodd" d="M108.097 325.137H145.755C147.535 325.137 149.244 325.845 150.503 327.103L193.866 370.448C195.126 371.706 195.832 373.414 195.832 375.194V413.346L186.24 404.717V376.384L144.564 334.725H117.689L108.097 325.137Z" fill="black"/>
<path fill-rule="evenodd" clip-rule="evenodd" d="M394.881 210.091H358.441C356.661 210.091 354.954 209.384 353.693 208.126L310.33 164.779C309.072 163.521 308.364 161.814 308.364 160.035V123.806L317.956 132.432V158.842L359.632 200.504H386.248L394.881 210.091Z" fill="black"/>
<path fill-rule="evenodd" clip-rule="evenodd" d="M98.3196 308.986L205.736 416.357C219.663 429.681 227.528 443.503 231.174 461.575C234.777 479.427 234.232 501.302 231.761 530.636L231.067 538.868L49.8194 357.639L49.7412 357.568C49.6429 357.478 49.5008 357.348 49.3176 357.179C48.951 356.837 48.4196 356.339 47.7471 355.693C46.4026 354.4 44.492 352.517 42.2038 350.13C37.6318 345.363 31.5309 338.564 25.4217 330.441C13.33 314.367 0.673157 292.417 0.673157 270.492C0.673157 247.645 13.293 225.232 25.4054 208.887C31.5167 200.64 37.6203 193.777 42.1954 188.976C44.4849 186.573 46.397 184.68 47.7431 183.382C48.4162 182.734 48.9481 182.234 49.3155 181.892C49.4993 181.722 49.6416 181.589 49.7402 181.499L49.8543 181.396L49.886 181.367L49.8954 181.359L49.8985 181.356C49.8985 181.356 49.9004 181.354 52.4668 184.205C52.4668 184.205 46.604 189.48 38.978 198.184C24.7937 214.375 4.50973 242.434 4.50973 270.492C4.50973 311.719 52.4668 354.862 52.4668 354.862L227.938 530.314C228.08 528.615 228.216 526.945 228.347 525.298C232.686 470.106 229.116 444.017 203.052 419.099L95.6283 311.719C41.4833 259.283 32.9119 224.026 42.2915 200.224C44.675 194.176 48.218 188.868 52.4668 184.205L49.9004 181.354L55.3032 186.788C45.5792 197.459 39.8528 211.625 44.4534 231.046C49.1296 250.784 64.5568 276.289 98.2985 308.965L98.3196 308.986Z" fill="black"/>
<path d="M98.2755 230.125L98.2448 230.156L98.2064 230.192L98.1048 230.292C97.9762 230.419 97.7806 230.616 97.5254 230.881C97.0152 231.41 96.2747 232.204 95.377 233.235C93.5815 235.301 91.1798 238.301 88.78 242.014C83.9424 249.498 79.323 259.547 79.323 270.492C79.323 286.782 89.5703 299.957 95.1103 305.845C96.1539 306.877 97.2166 307.918 98.2985 308.965L93.1326 314.631L93.1287 314.629L93.1191 314.62L93.1 314.603L93.0386 314.551C92.9887 314.505 92.9177 314.443 92.8295 314.365C92.653 314.206 92.4055 313.979 92.0948 313.686C91.4828 313.109 90.6311 312.275 89.6183 311.203C57.1768 279.096 41.4609 253.059 36.7425 231.745C31.9546 210.122 38.5756 193.754 49.6307 181.622L49.6909 181.557L231.119 0.202942L231.813 8.43113C234.29 37.7654 234.834 59.6405 231.224 77.4928C227.57 95.5665 219.689 109.388 205.734 122.713L152.022 176.403L98.3081 230.093L98.2774 230.123L98.2755 230.125Z" fill="black"/>
<path fill-rule="evenodd" clip-rule="evenodd" d="M203.052 419.099L95.6283 311.719C45.0015 262.69 34.2182 228.679 40.698 205.01C42.9094 196.933 47.1315 190.059 52.4669 184.205C52.4669 184.205 44.7481 191.148 35.5036 202.251C21.7058 218.822 4.50974 244.658 4.50974 270.492C4.50974 311.719 52.4669 354.862 52.4669 354.862L227.938 530.314C228.155 527.742 228.356 525.23 228.54 522.78C232.571 469.305 228.717 443.633 203.052 419.099ZM223.156 517.396C224.712 494.508 224.591 477.437 221.773 463.472C218.537 447.439 211.706 435.33 199.074 423.256L199.028 423.212L91.5903 315.818C57.3435 282.644 40.4125 255.595 35.1202 233.255C33.5063 226.444 32.9867 220.12 33.3607 214.26C33.2781 214.371 33.1954 214.482 33.1127 214.593C21.308 230.522 10.2646 250.834 10.2646 270.492C10.2646 289.138 21.2525 308.944 33.088 324.679C38.9109 332.422 44.7463 338.926 49.1283 343.496C51.3161 345.777 53.1333 347.568 54.3947 348.78C55.0253 349.386 55.5162 349.848 55.8444 350.153C56.0084 350.305 56.1317 350.418 56.2115 350.491L56.2979 350.569L56.3159 350.585L56.318 350.588L56.4294 350.688L223.156 517.396Z" fill="black"/>
<path fill-rule="evenodd" clip-rule="evenodd" d="M407.536 230.064L300.119 122.692C286.193 109.369 278.328 95.5455 274.681 77.4734C271.078 59.6222 271.623 37.7482 274.094 8.41389L274.788 0.182251L456.036 181.409L456.114 181.482C456.212 181.57 456.354 181.701 456.538 181.871C456.905 182.213 457.436 182.711 458.107 183.357C459.452 184.65 461.363 186.533 463.651 188.918C468.224 193.687 474.325 200.486 480.434 208.607C492.525 224.683 505.182 246.633 505.182 268.558C505.182 291.405 492.562 313.816 480.45 330.163C474.338 338.408 468.236 345.273 463.661 350.074C461.37 352.477 459.458 354.37 458.111 355.668C457.44 356.316 456.906 356.816 456.54 357.158C456.356 357.328 456.214 357.459 456.114 357.549L456.001 357.654L455.968 357.683L455.961 357.691L455.957 357.693C455.957 357.693 455.955 357.695 453.388 354.845C453.388 354.845 459.251 349.57 466.878 340.865C481.062 324.675 501.345 296.616 501.345 268.558C501.345 227.331 453.388 184.188 453.388 184.188L277.917 8.73584C277.775 10.434 277.639 12.1056 277.508 13.7512C273.169 68.9442 276.739 95.0335 302.803 119.951L410.227 227.331C464.372 279.767 472.943 315.024 463.563 338.824C461.18 344.874 457.637 350.182 453.388 354.845L455.955 357.695L450.551 352.262C460.275 341.591 466.003 327.425 461.401 308.003C456.726 288.264 441.299 262.761 407.557 230.085L407.536 230.064Z" fill="black"/>
<path d="M407.58 308.925L407.582 308.923L407.61 308.894L407.649 308.858L407.75 308.756C407.879 308.63 408.075 308.432 408.33 308.169C408.84 307.64 409.581 306.846 410.478 305.815C412.274 303.748 414.675 300.747 417.075 297.036C421.913 289.552 426.532 279.501 426.532 268.558C426.532 252.267 416.285 239.091 410.745 233.205C409.701 232.171 408.639 231.132 407.557 230.085L412.723 224.419L412.727 224.421L412.736 224.428L412.755 224.446L412.817 224.499C412.867 224.543 412.938 224.607 413.026 224.685C413.202 224.842 413.45 225.071 413.76 225.362C414.372 225.939 415.224 226.775 416.237 227.847C448.679 259.952 464.394 285.992 469.113 307.303C473.901 328.928 467.281 345.296 456.224 357.426L456.164 357.493L274.737 538.847L274.042 530.618C271.566 501.285 271.021 479.41 274.631 461.556C278.285 443.483 286.166 429.66 300.121 416.337L353.833 362.647L407.547 308.956L407.578 308.927L407.58 308.925Z" fill="black"/>
<path fill-rule="evenodd" clip-rule="evenodd" d="M302.803 119.951L410.227 227.331C460.854 276.36 471.637 310.371 465.157 334.038C462.945 342.117 458.723 348.989 453.388 354.845C453.388 354.845 461.107 347.9 470.352 336.798C484.15 320.227 501.345 294.392 501.345 268.558C501.345 227.331 453.388 184.188 453.388 184.188L277.917 8.73584C277.7 11.3072 277.499 13.8182 277.315 16.2701C273.284 69.7446 277.138 95.4151 302.803 119.951ZM282.699 21.6531C281.144 44.5409 281.264 61.6126 284.082 75.5782C287.319 91.6108 294.15 103.72 306.782 115.794L306.828 115.838L414.265 223.232C448.512 256.405 465.443 283.455 470.735 305.794C472.349 312.607 472.869 318.93 472.494 324.79C472.577 324.679 472.659 324.568 472.742 324.457C484.547 308.526 495.591 288.216 495.591 268.558C495.591 249.912 484.603 230.104 472.767 214.369C466.945 206.628 461.109 200.124 456.726 195.553C454.539 193.271 452.723 191.482 451.46 190.268C450.829 189.662 450.338 189.202 450.01 188.897C449.847 188.746 449.723 188.632 449.644 188.56L449.558 188.481L449.54 188.464L449.536 188.462L449.425 188.362L282.699 21.6531Z" fill="black"/>
</svg>
