<svg xmlns="http://www.w3.org/2000/svg" viewBox="0 0 297.92 103.28"><defs><style>.cls-1{isolation:isolate;}.cls-2,.cls-3{fill:#333;}.cls-3{mix-blend-mode:darken;}</style></defs><title>studsovet--mono</title><g class="cls-1"><g id="Layer_1" data-name="Layer 1"><g id="_Group_" data-name="&lt;Group&gt;"><g id="_Group_2" data-name="&lt;Group&gt;"><g id="_Group_3" data-name="&lt;Group&gt;"><polygon id="_Path_" data-name="&lt;Path&gt;" class="cls-2" points="95.27 0 69.45 0 35.5 51.64 48.32 71.14 61.32 51.64 95.27 0"/><g id="_Group_4" data-name="&lt;Group&gt;"><polygon id="_Path_2" data-name="&lt;Path&gt;" class="cls-2" points="61.32 59.36 50.88 75.03 69.45 103.28 95.27 103.28 63.86 55.5 61.32 59.36"/></g></g><line id="_Path_3" data-name="&lt;Path&gt;" class="cls-3" x1="61.32" y1="51.64" x2="48.32" y2="71.14"/></g><g id="_Group_5" data-name="&lt;Group&gt;"><g id="_Group_6" data-name="&lt;Group&gt;"><polygon id="_Path_4" data-name="&lt;Path&gt;" class="cls-2" points="59.77 103.28 33.95 103.28 0 51.64 12.82 32.14 25.82 51.64 59.77 103.28"/><g id="_Group_7" data-name="&lt;Group&gt;"><polygon id="_Path_5" data-name="&lt;Path&gt;" class="cls-2" points="25.82 43.92 15.38 28.25 33.95 0 59.77 0 28.36 47.78 25.82 43.92"/></g></g><line id="_Path_6" data-name="&lt;Path&gt;" class="cls-3" x1="25.82" y1="51.64" x2="12.82" y2="32.14"/></g><g id="_Group_8" data-name="&lt;Group&gt;"><path id="_Compound_Path_" data-name="&lt;Compound Path&gt;" class="cls-2" d="M400.06,342.31v6.56H389v-6.56c-16.39-.55-18.5-10.93-18.5-23.26s2.11-22.71,18.5-23.26V290h11.08v5.78c16.39.55,18.5,10.85,18.5,23.26S416.45,341.76,400.06,342.31Zm-10.85-36.84c-6.95.23-7.65,4.84-7.65,13.58s.7,13.35,7.65,13.58Zm10.61,0v27.16c6.95-.23,7.65-4.84,7.65-13.58S406.77,305.7,399.83,305.47Z" transform="translate(-271.98 -246)"/><path id="_Compound_Path_2" data-name="&lt;Compound Path&gt;" class="cls-2" d="M425.58,348.39V292.83h11.08v55.57Zm22.87,0-11.63-29,10.61-26.61h11.63l-10.93,26.07,12.49,29.5Z" transform="translate(-271.98 -246)"/><path id="_Compound_Path_3" data-name="&lt;Compound Path&gt;" class="cls-2" d="M489,345a14.49,14.49,0,0,1-10.69,4c-6,0-9.68-2.5-12.17-5.62-3.9-4.76-4.14-12.1-4.14-22.79s.23-18,4.14-22.79c2.5-3.12,6.17-5.62,12.17-5.62a14.49,14.49,0,0,1,10.69,4c2.89,2.73,4.76,7.1,5,12.41H482.87a10.52,10.52,0,0,0-.86-4.29c-.62-1.33-1.72-2.11-3.75-2.11a3.81,3.81,0,0,0-3.75,2.19C473.19,307,473,313.9,473,320.61s.16,13.66,1.48,16.23a3.81,3.81,0,0,0,3.75,2.18,3.71,3.71,0,0,0,3.75-2.18,10.52,10.52,0,0,0,.86-4.29h11.08C493.72,337.86,491.84,342.31,489,345Z" transform="translate(-271.98 -246)"/><path id="_Compound_Path_4" data-name="&lt;Compound Path&gt;" class="cls-2" d="M516.89,348.39V329l-7.8,19.43h-9.21v-42h10.46v19.43l7.8-19.43h9.21v42Z" transform="translate(-271.98 -246)"/><path id="_Compound_Path_5" data-name="&lt;Compound Path&gt;" class="cls-2" d="M560.6,345a14.49,14.49,0,0,1-10.69,4c-6,0-9.68-2.5-12.17-5.62-3.9-4.76-4.14-12.1-4.14-22.79s.23-18,4.14-22.79c2.5-3.12,6.17-5.62,12.17-5.62a14.49,14.49,0,0,1,10.69,4c2.89,2.73,4.76,7.1,5,12.41H554.51a10.52,10.52,0,0,0-.86-4.29c-.62-1.33-1.72-2.11-3.75-2.11a3.81,3.81,0,0,0-3.75,2.19c-1.33,2.58-1.48,9.52-1.48,16.23s.16,13.66,1.48,16.23a3.81,3.81,0,0,0,3.75,2.18,3.71,3.71,0,0,0,3.75-2.18,10.52,10.52,0,0,0,.86-4.29h11.08C565.36,337.86,563.49,342.31,560.6,345Z" transform="translate(-271.98 -246)"/></g><g id="_Group_9" data-name="&lt;Group&gt;"><path id="_Compound_Path_6" data-name="&lt;Compound Path&gt;" class="cls-2" d="M389.64,278.22a9.85,9.85,0,0,1-13.94-1c-2.38-2.9-2.52-7.38-2.52-13.9s.14-11,2.52-13.9a9.85,9.85,0,0,1,13.94-1,11,11,0,0,1,3,7.57h-6.76a6.42,6.42,0,0,0-.52-2.62,2.23,2.23,0,0,0-2.28-1.28,2.33,2.33,0,0,0-2.28,1.33c-.81,1.57-.9,5.81-.9,9.9s.1,8.33.9,9.9a2.33,2.33,0,0,0,2.28,1.33,2.26,2.26,0,0,0,2.28-1.33,6.42,6.42,0,0,0,.52-2.62h6.76A11.08,11.08,0,0,1,389.64,278.22Z" transform="translate(-271.98 -246)"/><path id="_Compound_Path_7" data-name="&lt;Compound Path&gt;" class="cls-2" d="M407.06,252.47v27.79H400.3V252.47h-5.71v-6.09h18.18v6.09Z" transform="translate(-271.98 -246)"/><path id="_Compound_Path_8" data-name="&lt;Compound Path&gt;" class="cls-2" d="M428.09,273.79c-1.62,5-3.52,6.47-10.14,6.47v-6.09c3.14,0,4.19-.9,4.85-3.38l.43-1.62-7.66-22.8H423l3.33,13.71,3.33-13.71h7.42Z" transform="translate(-271.98 -246)"/><path id="_Compound_Path_9" data-name="&lt;Compound Path&gt;" class="cls-2" d="M455.55,287.11v-6.85H442.08v6.85h-6.38V274.17H438a43.65,43.65,0,0,0,2.81-16.28V246.38h18.13v27.79h3v12.94Zm-3.38-34.65h-4.85v7.28a40.78,40.78,0,0,1-2.43,14.42h7.28Z" transform="translate(-271.98 -246)"/><path id="_Compound_Path_10" data-name="&lt;Compound Path&gt;" class="cls-2" d="M480.44,278.22a9.85,9.85,0,0,1-13.94-1c-2.38-2.9-2.52-7.38-2.52-13.9s.14-11,2.52-13.9a9.85,9.85,0,0,1,13.94-1,11,11,0,0,1,3,7.57h-6.76a6.41,6.41,0,0,0-.52-2.62,2.23,2.23,0,0,0-2.28-1.28,2.33,2.33,0,0,0-2.28,1.33c-.81,1.57-.9,5.81-.9,9.9s.1,8.33.9,9.9a2.33,2.33,0,0,0,2.28,1.33,2.26,2.26,0,0,0,2.28-1.33,6.41,6.41,0,0,0,.52-2.62h6.76A11.08,11.08,0,0,1,480.44,278.22Z" transform="translate(-271.98 -246)"/><path id="_Compound_Path_11" data-name="&lt;Compound Path&gt;" class="cls-2" d="M503,277.22a9.76,9.76,0,0,1-14.85,0c-2.38-2.9-2.52-7.38-2.52-13.9s.14-11,2.52-13.9a9.76,9.76,0,0,1,14.85,0c2.38,2.9,2.52,7.38,2.52,13.9S505.33,274.31,503,277.22Zm-5.14-23.79a2.62,2.62,0,0,0-4.57,0c-.81,1.57-.9,5.81-.9,9.9s.1,8.33.9,9.9a2.62,2.62,0,0,0,4.57,0c.81-1.57.9-5.81.9-9.9S498.62,255,497.81,253.42Z" transform="translate(-271.98 -246)"/><path id="_Compound_Path_12" data-name="&lt;Compound Path&gt;" class="cls-2" d="M526.55,278c-1.43,1.48-3.66,2.24-7,2.24h-9.8V246.38h9.8c3.38,0,5.62.76,7.09,2.19s2.24,3.33,2.24,7c0,2.43-.43,4.28-1.86,5.71a5.82,5.82,0,0,1-1.57,1.14,5.92,5.92,0,0,1,1.57,1.19c1.43,1.48,1.86,3.33,1.86,6.66C528.84,274.22,528.27,276.26,526.55,278Zm-7.85-25.56h-2.24v7.23h2.24c2.62,0,3.38-1.14,3.38-3.62S521.37,252.47,518.7,252.47Zm-.1,12.94h-2.14v8.76h2.14c2.71,0,3.47-1.28,3.47-4.38S521.22,265.41,518.61,265.41Z" transform="translate(-271.98 -246)"/><path id="_Compound_Path_13" data-name="&lt;Compound Path&gt;" class="cls-2" d="M533.64,280.26V246.38h15.61v6.09H540.4v7.66H548v6.09H540.4v7.95h8.85v6.09Z" transform="translate(-271.98 -246)"/><path id="_Compound_Path_14" data-name="&lt;Compound Path&gt;" class="cls-2" d="M564.2,252.47v27.79h-6.76V252.47h-5.71v-6.09h18.18v6.09Z" transform="translate(-271.98 -246)"/></g></g></g></g></svg>